<?xml version="1.0" encoding="UTF-8" standalone="no"?>
<!-- Created with Inkscape (http://www.inkscape.org/) -->

<svg
   width="210mm"
   height="297mm"
   viewBox="0 0 210 297"
   version="1.1"
   id="svg5"
   inkscape:version="1.1.1 (3bf5ae0d25, 2021-09-20, custom)"
   sodipodi:docname="glitch-w-dark-draft.svg"
   inkscape:export-filename="/home/walter/git/personal-site-basic/pics/glitch-w-dark-draft.png"
   inkscape:export-xdpi="30"
   inkscape:export-ydpi="30"
   xmlns:inkscape="http://www.inkscape.org/namespaces/inkscape"
   xmlns:sodipodi="http://sodipodi.sourceforge.net/DTD/sodipodi-0.dtd"
   xmlns="http://www.w3.org/2000/svg"
   xmlns:svg="http://www.w3.org/2000/svg">
  <sodipodi:namedview
     id="namedview7"
     pagecolor="#232323"
     bordercolor="#999999"
     borderopacity="1"
     inkscape:pageshadow="0"
     inkscape:pageopacity="0"
     inkscape:pagecheckerboard="0"
     inkscape:document-units="px"
     showgrid="false"
     showborder="false"
     inkscape:snap-global="false"
     inkscape:zoom="0.70710678"
     inkscape:cx="-115.25841"
     inkscape:cy="689.42911"
     inkscape:window-width="1896"
     inkscape:window-height="1030"
     inkscape:window-x="1930"
     inkscape:window-y="36"
     inkscape:window-maximized="0"
     inkscape:current-layer="layer1" />
  <defs
     id="defs2" />
  <g
     inkscape:label="Layer 1"
     inkscape:groupmode="layer"
     id="layer1">
    <path
       id="path3454"
       style="opacity:1;fill:#00ab98;fill-opacity:1;stroke:#fff3e5;stroke-width:0;stroke-linecap:square;stroke-linejoin:miter;stroke-miterlimit:4;stroke-dasharray:none;stroke-opacity:1"
       d="m -1.8088479,148.75811 c -2.299743,0 -4.176466,0.0893 -4.170804,0.19844 0.0057,0.10914 2.843516,5.49672 6.30659202,11.9724 5.71681798,10.68999 6.36173398,11.78177 7.00577498,11.85819 0.548897,0.0651 0.859308,0.37933 1.370976,1.38906 0.658293,1.29907 0.658645,1.30483 0.09922,1.30483 -0.426463,0 -0.5193,0.11163 -0.384474,0.46302 0.09771,0.25466 2.2009549,4.24365 4.6736159,8.86458 2.472661,4.62093 4.424693,8.51643 4.338238,8.65631 -0.08645,0.13989 0.0838,0.72658 0.378272,1.3038 0.528288,1.03554 0.528865,1.05033 0.01964,1.13327 -0.451432,0.0735 -0.127889,0.81353 2.583307,5.90506 3.077604,5.77963 3.106105,5.82129 4.025593,5.90042 0.904695,0.0778 0.974571,0.17086 3.027206,4.03489 l 2.101162,3.95532 h 2.678391 2.678906 l 2.40502,-6.15157 2.405023,-6.15156 -0.76843,-0.0827 c -0.899231,-0.097 -0.897797,-0.0909 -0.335896,-1.56218 0.361442,-0.94642 0.549992,-1.13326 1.144116,-1.13326 0.662205,0 0.796322,-0.21522 1.938899,-3.10886 0.675156,-1.70987 1.30434,-3.31721 1.397849,-3.57187 0.156964,-0.42748 -0.124336,-0.46302 -3.659208,-0.46302 h -3.828709 l -0.448551,1.1746 c -0.356746,0.93413 -0.592648,1.1914 -1.152385,1.25677 -0.644088,0.0752 -0.81766,0.38495 -2.043803,3.65198 -0.819539,2.18364 -1.493819,3.6 -1.736844,3.6468 -0.247187,0.0476 -0.618826,-0.37923 -0.983403,-1.12964 -0.715481,-1.47268 -0.714962,-1.45676 -0.03152,-1.45676 0.541184,0 0.537622,-0.0282 -0.145728,-1.19425 -0.384958,-0.65688 -0.633788,-1.30164 -0.552937,-1.43247 0.08085,-0.13082 -1.937101,-4.11846 -4.484481,-8.86147 -2.547379,-4.74301 -4.631758,-8.67419 -4.631758,-8.7359 0,-0.0617 0.235907,-0.14987 0.523999,-0.19637 0.461333,-0.0745 0.151985,-0.77891 -2.594158,-5.90558 -2.717387,-5.073 -3.205477,-5.83132 -3.797699,-5.90145 -0.601967,-0.0713 -1.278395,-1.1962 -5.9247029,-9.85573 l -5.244643,-9.77512 z m 94.9693969,0.0584 c -2.049658,-0.0405 -3.835484,0.0352 -3.968233,0.16795 -0.132747,0.13274 -3.079125,5.52341 -6.547921,11.97963 -5.392769,10.03717 -6.233167,11.75127 -5.798612,11.82356 0.627292,0.10436 0.629878,0.0469 -0.0739,1.49552 -0.463431,0.95389 -0.719275,1.19834 -1.256771,1.19993 -0.613862,0.002 -1.068699,0.73753 -5.029151,8.13593 -6.808881,12.71949 -6.511104,12.23419 -7.501351,12.2375 -0.815178,0.003 -0.911843,0.13041 -2.805513,3.71553 -1.295926,2.45347 -2.090372,3.68654 -2.342491,3.63544 -0.209825,-0.0425 -0.595381,-0.64306 -0.857313,-1.33428 l -0.476457,-1.25677 h 0.767911 c 0.4225,0 0.767167,-0.0298 0.765844,-0.0662 -0.0014,-0.0364 -0.585155,-1.61396 -1.297077,-3.50573 l -1.293977,-3.43958 -4.133598,-0.0729 -4.133599,-0.0729 0.403593,0.9648 c 0.532612,1.27472 0.51512,1.38016 -0.241329,1.47846 -0.641477,0.0834 -0.634402,0.10868 1.653646,5.95778 l 2.298052,5.87458 0.921909,0.0785 c 0.91735,0.0785 0.927396,0.0943 2.167307,3.25407 0.685231,1.74625 1.367512,3.5069 1.515671,3.91242 l 0.269235,0.73742 2.564183,-0.076 2.564701,-0.076 3.255098,-6.08541 3.255099,-6.08542 -0.782382,-0.0827 c -0.430133,-0.0456 -0.781864,-0.14355 -0.781864,-0.21756 0,-0.074 0.30915,-0.662 0.68678,-1.30638 0.580724,-0.99093 0.815321,-1.17213 1.521354,-1.17512 0.827476,-0.003 0.881871,-0.0921 6.258533,-10.18388 4.907405,-9.21102 5.486954,-10.1814 6.085417,-10.18749 0.589923,-0.006 0.990526,-0.62763 3.704167,-5.7459 1.673489,-3.15642 3.082569,-5.83309 3.131075,-5.94847 0.04851,-0.11539 -0.159851,-0.20981 -0.463021,-0.20981 -0.303167,0 -0.551388,-0.0467 -0.551388,-0.10387 0,-0.0572 2.311571,-4.43273 5.136638,-9.72344 l 5.13612,-9.61956 z" />
    <path
       id="rect846"
       style="fill:#fff3e5;stroke:#fff3e5;stroke-width:4.9;stroke-linecap:round;stroke-linejoin:miter;stroke-miterlimit:4;stroke-dasharray:none;stroke-opacity:1"
       d="m 1.5817943,151.21939 10.4427737,19.57245 h 1.266589 l 3.906737,7.32306 h -1.26659 l 9.527069,17.85679 h -0.555521 l 1.347202,2.49701 h -1.199925 l 3.869531,7.25278 h 1.740462 l 4.239018,7.94474 h 2.393136 l 3.121773,-7.94474 h -1.740462 l 2.849438,-7.25278 h 1.388029 l 0.992704,-2.49701 h -2.717663 l -0.945162,2.49701 h -1.358057 l -2.714563,7.25278 h 1.740462 l -1.536857,4.10622 -2.204,-4.10622 h -1.740462 l -3.892785,-7.25278 h 1.239717 l -1.355472,-2.49701 h 0.51573 L 19.350219,178.1149 h 1.266589 l -3.93051,-7.32306 H 15.419709 L 4.9144065,151.21939 Z m 92.9829537,0 -10.505302,19.57245 h 1.266589 l -3.931026,7.32306 H 80.12842 l -9.584428,17.85679 h -0.04134 l -1.355989,2.49701 h -1.683619 l -3.892785,7.25278 h 1.740462 l -2.204,4.10622 -1.536857,-4.10622 h -1.740462 l -2.714563,-7.25278 h 1.565796 l -0.945679,-2.49701 h -3.199288 l 0.992188,2.49701 h -1.530139 l 2.849438,7.25278 h 1.740462 l 3.121773,7.94474 h 2.097547 l 4.239018,-7.94474 h -1.740463 l 3.869532,-7.25278 h 1.714624 l 1.347721,-2.49701 h 0.01033 l 9.527066,-17.85679 h 1.26659 l 3.906739,-7.32306 h -1.266589 l 10.442773,-19.57245 z" />
    <path
       id="path5147"
       style="opacity:0.832248;fill:#d653ff;fill-opacity:1;stroke:#fff3e5;stroke-width:0;stroke-linecap:square;stroke-linejoin:miter;stroke-miterlimit:4;stroke-dasharray:none;stroke-opacity:1"
       d="m 61.691294,148.07031 -4.743381,0.001 -0.636654,1.18959 -0.636135,1.18908 h -0.906923 -0.90692 l -2.326473,4.56612 c -1.279472,2.51149 -2.325958,4.59511 -2.325958,4.63021 0,0.0351 0.625079,0.0641 1.389063,0.0641 0.812392,0 1.389062,0.0534 1.389062,0.12867 0,0.0708 -0.130016,0.39551 -0.288353,0.72141 -0.270756,0.55732 -0.322879,0.595 -0.879533,0.632 l -0.591696,0.0393 -2.405536,4.72891 c -1.322877,2.60104 -2.441287,4.76574 -2.485639,4.81004 -0.06791,0.0679 -2.477367,-4.5766 -2.477367,-4.77542 0,-0.0371 0.208359,-0.0672 0.46302,-0.0672 0.254664,0 0.463021,-0.0394 0.463021,-0.0873 0,-0.0479 -1.235273,-2.51849 -2.745052,-5.49011 l -2.745052,-5.40277 h -0.555003 -0.555006 l -1.760098,-3.43751 -1.760101,-3.43701 -4.464844,-0.002 c -2.455664,-10e-4 -4.464844,0.0377 -4.464844,0.0863 0,0.0486 0.266645,0.58133 0.592731,1.18442 l 0.592727,1.09658 -0.913122,0.0387 -0.913638,0.0393 2.470131,4.5961 2.47065,4.59662 1.476913,5.1e-4 1.476914,0.001 0.342096,0.61185 c 0.188121,0.33658 0.342098,0.664 0.342098,0.7276 0,0.0636 -0.208356,0.11576 -0.463021,0.11576 -0.254661,0 -0.46302,0.0336 -0.46302,0.0749 0,0.0413 2.092169,3.9732 4.649329,8.73745 l 4.649327,8.66252 -0.0067,0.0176 h 9.183936 c 0.243834,-0.63344 1.424101,-2.93615 3.273187,-6.38049 l 3.373437,-6.28385 0.603062,-0.0661 0.603581,-0.0662 2.905765,-5.42395 2.906284,-5.42396 -0.523999,-0.0656 -0.524,-0.0661 1.724443,-3.2153 c 0.94832,-1.7684 1.756908,-3.30133 1.797307,-3.40651 0.06317,-0.16465 -0.586777,-0.19117 -4.669999,-0.19017 z" />
    <path
       id="path1159"
       style="fill:#fff3e5;stroke:#fff3e5;stroke-width:4.9;stroke-linecap:round;stroke-linejoin:miter;stroke-miterlimit:4;stroke-dasharray:none;stroke-opacity:1"
       d="m 32.014027,150.38842 1.300179,2.4226 h -1.850017 l 2.411223,4.49223 h 2.976045 l 3.301608,6.15053 h -1.12603 l 1.802474,3.35793 h 3.159497 l -1.708939,-3.35793 h 1.126029 l -3.130041,-6.15053 h -2.976046 l -2.286682,-4.49223 h 1.850016 l -1.233,-2.4226 z m 29.766141,0 -1.233,2.4226 h -1.850016 l -2.286165,4.49223 h 2.976046 l -3.130559,6.15053 h -1.126029 l -1.70894,3.35793 h 3.697449 l 1.802474,-3.35793 h 1.126029 l 3.301091,-6.15053 h -2.976046 l 2.411222,-4.49223 h 1.850017 l 1.300179,-2.4226 z m -20.109367,17.99115 5.384168,10.03091 -6.26215,16.73025 h 2.686658 l 5.256009,-13.37748 5.25601,13.37748 h 3.163632 l -6.261634,-16.73025 5.384168,-10.03091 h -3.654041 l -3.918107,7.69824 -3.918107,-7.69824 z" />
  </g>
</svg>
